<?xml version="1.0"?>
<svg xmlns="http://www.w3.org/2000/svg" xmlns:xlink="http://www.w3.org/1999/xlink" version="1.1" id="Capa_1" x="0px" y="0px" viewBox="0 0 464 464" style="enable-background:new 0 0 464 464;" xml:space="preserve" width="512px" height="512px"><g transform="matrix(0.611118 0 0 0.611118 90.2207 90.2207)"><g>
	<g>
		<path d="M424,64H40C17.944,64,0,81.944,0,104v64v192c0,22.056,17.944,40,40,40h384c22.056,0,40-17.944,40-40V168v-64    C464,81.944,446.056,64,424,64z M40,80h384c10.416,0,19.216,6.712,22.528,16H17.472C20.784,86.712,29.584,80,40,80z M448,360    c0,13.232-10.768,24-24,24H40c-13.232,0-24-10.768-24-24V176h432V360z M448,160H16v-48h432V160z" data-original="#000000" class="active-path" data-old_color="#000000" fill="#FFFFFF"/>
	</g>
</g><g>
	<g>
		<path d="M200,224H72c-4.424,0-8,3.576-8,8v96c0,4.424,3.576,8,8,8h128c4.424,0,8-3.576,8-8v-96C208,227.576,204.424,224,200,224z     M192,320H80v-80h112V320z" data-original="#000000" class="active-path" data-old_color="#000000" fill="#FFFFFF"/>
	</g>
</g><g>
	<g>
		<path d="M397.656,258.344c-3.128-3.128-8.184-3.128-11.312,0L360,284.688l-26.344-26.344c-3.128-3.128-8.184-3.128-11.312,0    l-32,32c-3.128,3.128-3.128,8.184,0,11.312c3.128,3.128,8.184,3.128,11.312,0L328,275.312l26.344,26.344    c1.56,1.56,3.608,2.344,5.656,2.344c2.048,0,4.096-0.784,5.656-2.344l32-32C400.784,266.528,400.784,261.472,397.656,258.344z" data-original="#000000" class="active-path" data-old_color="#000000" fill="#FFFFFF"/>
	</g>
</g><g>
	<g>
		<path d="M397.656,290.344c-3.128-3.128-8.184-3.128-11.312,0L360,316.688l-26.344-26.344c-3.128-3.128-8.184-3.128-11.312,0    l-32,32c-3.128,3.128-3.128,8.184,0,11.312c3.128,3.128,8.184,3.128,11.312,0L328,307.312l26.344,26.344    c1.56,1.56,3.608,2.344,5.656,2.344c2.048,0,4.096-0.784,5.656-2.344l32-32C400.784,298.528,400.784,293.472,397.656,290.344z" data-original="#000000" class="active-path" data-old_color="#000000" fill="#FFFFFF"/>
	</g>
</g></g> </svg>
